<svg width="1052" height="101" viewBox="0 0 1052 101" fill="none" xmlns="http://www.w3.org/2000/svg">
<g clip-path="url(#clip0_1_71)">
<path d="M59.1358 50.2675C59.1358 62.9661 54.3855 75.6542 44.8744 85.3238C25.8623 104.653 -5.06666 104.653 -24.0786 85.3238C-33.2928 75.956 -38.3607 63.5073 -38.3607 50.2675C-38.3607 37.0278 -33.2928 24.579 -24.0786 15.2112C-5.06666 -4.11803 25.8623 -4.11803 44.8744 15.2112C54.3752 24.8704 59.1358 37.569 59.1358 50.2675ZM42.3148 82.7216C59.914 64.8292 59.914 35.7162 42.3148 17.8238C24.7158 -0.0690231 -3.92 -0.0690231 -21.5192 17.8238C-30.0474 26.4942 -34.7364 38.0165 -34.7364 50.2779C-34.7364 62.5393 -30.0372 74.0617 -21.5192 82.7321C-3.92 100.624 24.7158 100.624 42.3148 82.7321V82.7216Z" fill="#9DADF2"/>
<path d="M28.6369 50.9231C29.0567 50.7462 29.3023 50.3299 29.3023 49.8927C29.3023 49.747 29.2717 49.6013 29.2204 49.4555C27.7769 45.9582 25.545 42.7732 22.7602 40.2543C22.3098 39.8483 21.6137 39.89 21.2143 40.348C20.8151 40.806 20.856 41.5138 21.3065 41.9197C23.8557 44.22 25.8932 47.124 27.2036 50.3195C27.4391 50.8815 28.084 51.1522 28.6369 50.9128V50.9231Z" fill="#9DADF2"/>
<path d="M-6.45877 31.3775L-13.7278 49.8632C-13.8302 50.1339 -13.8302 50.4253 -13.7278 50.6959L-6.45877 69.1817C-6.29497 69.6084 -5.89569 69.879 -5.44522 69.879H7.5775C19.5969 69.8582 30.4595 62.135 34.5956 50.6647C34.6365 50.5398 34.6571 50.4149 34.6571 50.2796C34.6571 50.1442 34.6365 50.0193 34.5956 49.8944C30.4492 38.4241 19.5969 30.701 7.5775 30.6801L-5.44522 30.6801C-5.89569 30.6801 -6.29497 30.9507 -6.45877 31.3775ZM7.5775 32.9075C18.5117 32.9284 28.4733 39.9022 32.3944 50.2692C28.4733 60.6362 18.5117 67.6204 7.5775 67.6412H-4.69786L-11.5266 50.2692L-4.69786 32.9075L7.5775 32.9075Z" fill="#9DADF2"/>
<path d="M-4.74928 57.9917C-4.86189 58.2624 -4.86189 58.5642 -4.74928 58.8452L-3.01899 63.2481C-2.85518 63.6748 -2.45591 63.9454 -2.00543 63.9454H2.61191C3.21596 63.9454 3.70733 63.4458 3.70733 62.8317C3.70733 62.2176 3.21596 61.718 2.61191 61.718H-1.25808L-2.7118 58.0229C-2.82441 57.7419 -3.02926 57.5337 -3.30568 57.4088C-3.57187 57.2944 -3.86872 57.2944 -4.14514 57.4088C-4.42157 57.5233 -4.62642 57.7315 -4.74928 58.0021V57.9917Z" fill="#9DADF2"/>
<path d="M-17.2907 22.1124C-24.6927 29.6274 -28.7573 39.6302 -28.7573 50.2678C-28.7573 60.9054 -24.6825 70.8977 -17.2907 78.4232C-2.02583 93.9424 22.8218 93.9424 38.097 78.4232C45.7345 70.6583 49.543 60.4683 49.543 50.2678C49.543 40.0674 45.7242 29.8773 38.097 22.1124C22.8321 6.59306 -2.01559 6.59306 -17.2907 22.1124ZM7.57739 27.6186C21.4704 27.5874 33.6229 36.6117 37.8307 50.0701C37.8717 50.195 37.8717 50.3303 37.8307 50.4656C33.6229 63.924 21.4704 72.9482 7.57739 72.917H-7.78986C-8.04581 72.917 -8.28124 72.7609 -8.38361 72.5111L-17.0348 50.5072C-17.0655 50.4343 -17.0757 50.3511 -17.0757 50.2678C-17.0757 50.1846 -17.0655 50.1012 -17.0348 50.0284L-8.37337 28.0245C-8.28123 27.7747 -8.0458 27.6186 -7.77961 27.6186L7.58764 27.6186H7.57739Z" fill="#9DADF2"/>
</g>
<g clip-path="url(#clip1_1_71)">
<path d="M256.285 0.889136C283.608 0.889136 305.841 23.122 305.841 50.4446C305.841 77.7673 283.608 100 256.285 100C228.963 100 206.73 77.7673 206.73 50.4446C206.73 23.122 228.963 0.889136 256.285 0.889136ZM256.285 96.43C281.641 96.43 302.271 75.8001 302.271 50.4446C302.271 25.0892 281.641 4.45933 256.285 4.45933C230.93 4.45933 210.3 25.0892 210.3 50.4446C210.3 75.8001 230.93 96.43 256.285 96.43Z" fill="#478BF9"/>
<path d="M135.149 0.886412C136.138 0.886412 136.929 1.68791 136.929 2.66631C136.929 3.64471 136.128 4.44621 135.149 4.44621C109.794 4.44621 89.1641 25.0761 89.1641 50.4315C89.1641 75.7869 109.794 96.4169 135.149 96.4169C136.138 96.4169 136.929 97.2183 136.929 98.1968C136.929 99.1752 136.128 99.9766 135.149 99.9766C107.827 99.9766 85.594 77.7438 85.594 50.4211C85.594 23.0984 107.827 0.865614 135.149 0.865614V0.886412Z" fill="#478BF9"/>
<path d="M246.751 41.6804C246.751 43.5014 247.99 45.0834 249.759 45.5204L253.121 46.3634V37.7144H250.727C248.541 37.7144 246.762 39.4944 246.762 41.6804H246.751Z" fill="#478BF9"/>
<path d="M259.468 63.1533H261.863C264.048 63.1533 265.828 61.3733 265.828 59.1873C265.828 57.3653 264.59 55.7833 262.82 55.3463L259.458 54.5033V63.1533H259.468Z" fill="#478BF9"/>
<path d="M256.295 10.1103C234.063 10.1103 215.962 28.2003 215.962 50.4443C215.962 72.6873 234.052 90.7773 256.295 90.7773C278.539 90.7773 296.629 72.6873 296.629 50.4443C296.629 28.2003 278.539 10.1103 256.295 10.1103ZM272.2 44.0743H265.84V40.8883C265.84 39.1403 264.414 37.7033 262.655 37.7033H259.47V47.9463L264.373 49.1743C268.973 50.3293 272.189 54.4413 272.189 59.1873C272.189 64.8803 267.558 69.5123 261.864 69.5123H259.47V77.5693H253.11V69.5123H249.925C244.659 69.5123 240.381 65.2343 240.381 59.9683V56.7833H246.74V59.9683C246.74 61.7163 248.166 63.1533 249.925 63.1533H253.11V52.9103L248.208 51.6823C243.607 50.5273 240.391 46.4153 240.391 41.6693C240.391 35.9763 245.023 31.3443 250.716 31.3443H253.11V23.2883H259.47V31.3443H262.655C267.922 31.3443 272.2 35.6223 272.2 40.8883V44.0743Z" fill="#478BF9"/>
<path d="M134.39 0.827019L253.985 0.827019C254.974 0.827019 255.765 1.62842 255.765 2.60682C255.765 3.58532 254.963 4.38672 253.985 4.38672L134.39 4.38672C133.401 4.38672 132.61 3.58532 132.61 2.60682C132.61 1.62842 133.411 0.827019 134.39 0.827019Z" fill="#478BF9"/>
<path d="M134.129 96.3623L253.725 96.3623C254.714 96.3623 255.505 97.1638 255.505 98.1422C255.505 99.1206 254.703 99.922 253.725 99.922L134.129 99.922C133.141 99.922 132.35 99.1206 132.35 98.1422C132.35 97.1638 133.151 96.3623 134.129 96.3623Z" fill="#478BF9"/>
</g>
<g clip-path="url(#clip2_1_71)">
<path d="M380.877 99.1527C353.554 99.1527 331.332 76.9198 331.332 49.6076C331.332 22.2953 353.565 0.0625 380.877 0.0625C408.189 0.0625 430.422 22.2953 430.422 49.6076C430.422 76.9198 408.189 99.1527 380.877 99.1527ZM380.877 3.36202C355.376 3.36202 334.631 24.1064 334.631 49.6076C334.631 75.1087 355.376 95.8531 380.877 95.8531C406.378 95.8531 427.122 75.1087 427.122 49.6076C427.122 24.1064 406.378 3.36202 380.877 3.36202Z" fill="#9DADF2"/>
<path d="M396.951 18.6731C396.701 18.6731 396.452 18.6211 396.223 18.5066C391.424 16.1334 386.262 14.926 380.88 14.926C375.499 14.926 370.336 16.1334 365.538 18.5066C364.903 18.8188 364.143 18.6939 363.644 18.1943L355.129 9.68007C354.765 9.31577 354.599 8.81614 354.661 8.30612C354.723 7.7961 355.015 7.34854 355.452 7.08833C363.123 2.48771 371.919 0.0625 380.891 0.0625C389.863 0.0625 398.658 2.49812 406.329 7.08833C406.767 7.34854 407.058 7.7961 407.121 8.30612C407.183 8.81614 407.006 9.31577 406.652 9.68007L398.138 18.1943C397.815 18.5066 397.399 18.6731 396.962 18.6731H396.951ZM380.88 11.6265C386.366 11.6265 391.653 12.7714 396.608 15.0301L402.77 8.86817C396.067 5.25637 388.541 3.36202 380.88 3.36202C373.22 3.36202 365.694 5.25637 358.991 8.86817L365.153 15.0301C370.107 12.7714 375.395 11.6265 380.88 11.6265Z" fill="#9DADF2"/>
<path d="M380.878 99.1526C371.906 99.1526 363.111 96.717 355.44 92.1268C355.003 91.8666 354.711 91.419 354.649 90.909C354.586 90.399 354.763 89.8994 355.117 89.5351L363.631 81.0208C364.131 80.5212 364.901 80.3963 365.526 80.7086C370.324 83.0817 375.487 84.2891 380.868 84.2891C386.249 84.2891 391.412 83.0817 396.21 80.7086C396.845 80.3963 397.605 80.5212 398.105 81.0208L406.619 89.5351C406.983 89.8994 407.15 90.399 407.087 90.909C407.025 91.419 406.733 91.8666 406.296 92.1268C398.625 96.7274 389.83 99.1526 380.858 99.1526H380.878ZM358.989 90.347C365.692 93.9588 373.218 95.8531 380.878 95.8531C388.539 95.8531 396.065 93.9588 402.768 90.347L396.606 84.1851C391.651 86.4438 386.364 87.5887 380.878 87.5887C375.393 87.5887 370.106 86.4438 365.151 84.1851L358.989 90.347Z" fill="#9DADF2"/>
<path d="M421.982 75.8477C421.545 75.8477 421.129 75.6812 420.817 75.3689L412.302 66.8546C411.803 66.355 411.678 65.5848 411.99 64.9603C414.363 60.1619 415.571 54.9992 415.571 49.618C415.571 44.2367 414.363 39.074 411.99 34.2756C411.678 33.6407 411.803 32.8705 412.302 32.3813L420.817 23.867C421.181 23.5027 421.681 23.3361 422.191 23.3986C422.701 23.461 423.148 23.7525 423.408 24.1897C428.009 31.8608 430.434 40.6561 430.434 49.6284C430.434 58.6006 428.009 67.3959 423.408 75.0671C423.148 75.5042 422.701 75.7957 422.191 75.8581C422.118 75.8581 422.055 75.8581 421.982 75.8581V75.8477ZM415.456 65.335L421.618 71.4969C425.23 64.7938 427.124 57.2683 427.124 49.6075C427.124 41.9468 425.23 34.4214 421.618 27.7182L415.456 33.8801C417.715 38.8346 418.86 44.1222 418.86 49.6075C418.86 55.0929 417.715 60.3805 415.456 65.335Z" fill="#9DADF2"/>
<path d="M339.773 75.8478C339.7 75.8478 339.638 75.8478 339.575 75.8374C339.065 75.7749 338.618 75.4835 338.357 75.0463C333.757 67.3751 331.332 58.5799 331.332 49.6076C331.332 40.6354 333.757 31.8401 338.357 24.1689C338.618 23.7317 339.065 23.4403 339.575 23.3778C340.085 23.3154 340.585 23.4923 340.949 23.8462L349.463 32.3605C349.963 32.8601 350.088 33.6304 349.776 34.2549C347.402 39.0533 346.195 44.2159 346.195 49.5972C346.195 54.9785 347.402 60.1411 349.776 64.9395C350.088 65.5744 349.963 66.3447 349.463 66.8339L340.949 75.3481C340.637 75.6604 340.221 75.8374 339.783 75.8374L339.773 75.8478ZM340.137 27.7183C336.525 34.4214 334.631 41.9469 334.631 49.6076C334.631 57.2684 336.525 64.7938 340.137 71.497L346.299 65.335C344.041 60.3805 342.896 55.093 342.896 49.6076C342.896 44.1223 344.041 38.8347 346.299 33.8802L340.137 27.7183Z" fill="#9DADF2"/>
<path d="M380.878 11.6162C359.936 11.6162 342.887 28.6551 342.887 49.6077C342.887 70.5603 359.925 87.5993 380.878 87.5993C401.831 87.5993 418.87 70.5603 418.87 49.6077C418.87 28.6551 401.831 11.6162 380.878 11.6162ZM402.257 37.1278C404.058 40.2087 405.151 43.5707 405.505 47.1409C405.515 47.2866 405.453 47.4219 405.328 47.4948C402.611 49.1602 400.176 51.2003 398.073 53.5838C397.979 53.6983 397.823 53.7399 397.688 53.6879L392.994 52.1579C392.858 52.1162 392.765 52.0018 392.744 51.856C392.213 47.9736 391.006 44.2577 389.153 40.802C389.09 40.6771 389.101 40.5314 389.184 40.4169L392.088 36.42C392.161 36.3263 392.275 36.2639 392.39 36.2639C392.421 36.2639 392.442 36.2639 392.473 36.2639C395.575 36.9508 398.76 37.1798 401.924 36.9196C402.07 36.9092 402.205 36.982 402.278 37.1069L402.257 37.1278ZM390.183 52.5117C390.194 52.6158 390.163 52.7199 390.1 52.7928C387.633 55.6343 384.49 57.9138 381.024 59.371C380.93 59.4127 380.836 59.4127 380.743 59.371C377.277 57.9034 374.133 55.6239 371.666 52.7928C371.604 52.7199 371.573 52.6158 371.583 52.5117C372.062 48.7438 373.238 45.1424 375.06 41.8117C375.112 41.718 375.195 41.6556 375.299 41.6347C377.131 41.2496 379.004 41.0519 380.888 41.0519C382.772 41.0519 384.646 41.2496 386.478 41.6347C386.582 41.6556 386.665 41.718 386.717 41.8117C388.539 45.1424 389.705 48.7438 390.194 52.5117H390.183ZM389.621 26.6775C389.621 26.6775 389.746 26.5734 389.871 26.5734C389.913 26.5734 389.965 26.5734 390.017 26.6047C393.847 28.1243 397.272 30.6224 399.936 33.8178C400.072 33.974 400.02 34.1405 399.988 34.203C399.967 34.255 399.874 34.4216 399.655 34.4216C397.292 34.4528 394.94 34.1822 392.661 33.6409C392.567 33.6201 392.484 33.5576 392.432 33.4743C391.214 31.4655 390.235 29.3005 389.528 27.0522C389.465 26.8545 389.58 26.7192 389.632 26.6775H389.621ZM375.622 25.4285C379.067 24.6895 382.7 24.6895 386.145 25.4285C386.28 25.4597 386.395 25.5638 386.426 25.6991C387.165 28.7905 388.362 31.7465 389.975 34.484C390.048 34.6089 390.038 34.765 389.954 34.8899L387.071 38.866C386.988 38.9805 386.842 39.043 386.707 39.0117C382.897 38.2415 378.869 38.2415 375.06 39.0117C374.924 39.043 374.779 38.9805 374.695 38.866L371.812 34.8899C371.729 34.7754 371.718 34.6089 371.791 34.484C373.405 31.7465 374.602 28.7905 375.341 25.6991C375.372 25.5638 375.486 25.4597 375.622 25.4285ZM361.83 33.8178C364.495 30.612 367.919 28.1139 371.75 26.6047C371.802 26.5839 371.854 26.5734 371.895 26.5734C372.031 26.5734 372.114 26.6463 372.145 26.6775C372.197 26.7296 372.312 26.8545 372.249 27.0522C371.542 29.3109 370.563 31.4655 369.345 33.4743C369.293 33.5576 369.21 33.6201 369.116 33.6409C366.837 34.1822 364.484 34.4528 362.122 34.4216C361.903 34.4216 361.809 34.255 361.789 34.203C361.757 34.1405 361.705 33.974 361.841 33.8178H361.83ZM359.509 37.1278C359.572 37.0133 359.697 36.9404 359.832 36.9404C359.832 36.9404 359.853 36.9404 359.863 36.9404C363.038 37.1902 366.223 36.9717 369.314 36.2847C369.46 36.2535 369.605 36.3055 369.689 36.4304L372.593 40.4273C372.676 40.5418 372.686 40.6979 372.624 40.8124C370.771 44.2681 369.564 47.984 369.033 51.8664C369.012 52.0017 368.919 52.1162 368.783 52.1683L364.089 53.6983C363.954 53.7399 363.797 53.6983 363.704 53.5943C361.601 51.2107 359.166 49.1705 356.449 47.5052C356.335 47.4323 356.262 47.297 356.272 47.1513C356.626 43.5811 357.719 40.2088 359.52 37.1382L359.509 37.1278ZM360.644 62.7747C360.581 62.9724 360.404 63.0141 360.331 63.0245C360.259 63.0245 360.092 63.0244 359.977 62.8579C357.76 59.371 356.449 55.3325 356.189 51.1899C356.178 50.9817 356.314 50.8776 356.376 50.8464C356.439 50.8151 356.605 50.7423 356.772 50.8672C358.697 52.2307 360.446 53.8337 361.976 55.6135C362.038 55.6864 362.07 55.7801 362.059 55.8842C361.872 58.2261 361.393 60.5472 360.633 62.7851L360.644 62.7747ZM370.927 72.2778C367.68 70.8518 364.818 68.7596 362.424 66.0742C362.33 65.9701 362.299 65.814 362.351 65.6891C363.568 62.7538 364.339 59.6625 364.641 56.4982C364.651 56.3525 364.755 56.2276 364.89 56.186L369.533 54.6767C369.533 54.6767 369.606 54.6559 369.647 54.6559C369.751 54.6559 369.845 54.6976 369.918 54.7809C372.52 57.6953 375.778 60.0684 379.348 61.6401C379.483 61.7026 379.567 61.8275 379.567 61.9732V66.8548C379.567 67.0006 379.483 67.1359 379.348 67.1879C376.434 68.4474 373.727 70.144 371.302 72.2153C371.198 72.309 371.042 72.3298 370.917 72.2673L370.927 72.2778ZM387.3 73.3082C387.29 73.3811 387.238 73.5476 387.03 73.5996C383.012 74.6197 378.765 74.6197 374.747 73.5996C374.55 73.5476 374.487 73.3811 374.477 73.3082C374.466 73.2354 374.445 73.0688 374.622 72.9335C376.517 71.5284 378.578 70.3521 380.753 69.4466C380.847 69.4049 380.941 69.4049 381.034 69.4466C383.199 70.3521 385.26 71.5284 387.165 72.9335C387.331 73.0584 387.321 73.2354 387.311 73.3082H387.3ZM399.364 66.0846C396.97 68.77 394.107 70.8518 390.86 72.2778C390.725 72.3402 390.579 72.3089 390.475 72.2257C388.05 70.1544 385.354 68.4578 382.429 67.1983C382.294 67.1359 382.21 67.011 382.21 66.8653V61.9836C382.21 61.8379 382.294 61.7026 382.429 61.6505C385.999 60.0788 389.267 57.7056 391.859 54.7912C391.932 54.7079 392.026 54.6663 392.13 54.6663C392.171 54.6663 392.203 54.6663 392.244 54.6871L396.887 56.1964C397.022 56.238 397.126 56.3629 397.136 56.5087C397.438 59.6729 398.208 62.7539 399.426 65.6995C399.478 65.8244 399.457 65.9805 399.353 66.0846H399.364ZM401.799 62.8683C401.685 63.0453 401.508 63.0453 401.446 63.0349C401.373 63.0349 401.206 62.9829 401.133 62.7851C400.384 60.5472 399.905 58.2261 399.707 55.8842C399.707 55.7905 399.728 55.6864 399.791 55.6135C401.321 53.8337 403.069 52.2411 404.995 50.8672C405.068 50.8152 405.141 50.7943 405.203 50.7943C405.286 50.7943 405.349 50.8255 405.39 50.8464C405.453 50.8776 405.599 50.9817 405.578 51.1899C405.318 55.3325 404.006 59.371 401.789 62.8579L401.799 62.8683Z" fill="#9DADF2"/>
</g>
<g clip-path="url(#clip3_1_71)">
<path d="M1001.88 100.153C974.554 100.153 952.332 77.9198 952.332 50.6076C952.332 23.2953 974.565 1.0625 1001.88 1.0625C1029.19 1.0625 1051.42 23.2953 1051.42 50.6076C1051.42 77.9198 1029.19 100.153 1001.88 100.153ZM1001.88 4.36202C976.376 4.36202 955.631 25.1064 955.631 50.6076C955.631 76.1087 976.376 96.8531 1001.88 96.8531C1027.38 96.8531 1048.12 76.1087 1048.12 50.6076C1048.12 25.1064 1027.38 4.36202 1001.88 4.36202Z" fill="#9DADF2"/>
<path d="M1017.95 19.6731C1017.7 19.6731 1017.45 19.6211 1017.22 19.5066C1012.42 17.1334 1007.26 15.926 1001.88 15.926C996.499 15.926 991.336 17.1334 986.538 19.5066C985.903 19.8188 985.143 19.6939 984.644 19.1943L976.129 10.6801C975.765 10.3158 975.599 9.81614 975.661 9.30612C975.723 8.7961 976.015 8.34854 976.452 8.08833C984.123 3.48771 992.919 1.0625 1001.89 1.0625C1010.86 1.0625 1019.66 3.49812 1027.33 8.08833C1027.77 8.34854 1028.06 8.7961 1028.12 9.30612C1028.18 9.81614 1028.01 10.3158 1027.65 10.6801L1019.14 19.1943C1018.82 19.5066 1018.4 19.6731 1017.96 19.6731H1017.95ZM1001.88 12.6265C1007.37 12.6265 1012.65 13.7714 1017.61 16.0301L1023.77 9.86817C1017.07 6.25637 1009.54 4.36202 1001.88 4.36202C994.22 4.36202 986.694 6.25637 979.991 9.86817L986.153 16.0301C991.107 13.7714 996.395 12.6265 1001.88 12.6265Z" fill="#9DADF2"/>
<path d="M1001.88 100.153C992.906 100.153 984.111 97.717 976.44 93.1268C976.003 92.8666 975.711 92.419 975.649 91.909C975.586 91.399 975.763 90.8994 976.117 90.5351L984.631 82.0208C985.131 81.5212 985.901 81.3963 986.526 81.7086C991.324 84.0817 996.487 85.2891 1001.87 85.2891C1007.25 85.2891 1012.41 84.0817 1017.21 81.7086C1017.85 81.3963 1018.61 81.5212 1019.1 82.0208L1027.62 90.5351C1027.98 90.8994 1028.15 91.399 1028.09 91.909C1028.02 92.419 1027.73 92.8666 1027.3 93.1268C1019.63 97.7274 1010.83 100.153 1001.86 100.153H1001.88ZM979.989 91.347C986.692 94.9588 994.218 96.8531 1001.88 96.8531C1009.54 96.8531 1017.06 94.9588 1023.77 91.347L1017.61 85.1851C1012.65 87.4438 1007.36 88.5887 1001.88 88.5887C996.393 88.5887 991.106 87.4438 986.151 85.1851L979.989 91.347Z" fill="#9DADF2"/>
<path d="M1042.98 76.8477C1042.55 76.8477 1042.13 76.6812 1041.82 76.3689L1033.3 67.8546C1032.8 67.355 1032.68 66.5848 1032.99 65.9603C1035.36 61.1619 1036.57 55.9992 1036.57 50.618C1036.57 45.2367 1035.36 40.074 1032.99 35.2756C1032.68 34.6407 1032.8 33.8705 1033.3 33.3813L1041.82 24.867C1042.18 24.5027 1042.68 24.3361 1043.19 24.3986C1043.7 24.461 1044.15 24.7525 1044.41 25.1897C1049.01 32.8608 1051.43 41.6561 1051.43 50.6284C1051.43 59.6006 1049.01 68.3959 1044.41 76.0671C1044.15 76.5042 1043.7 76.7957 1043.19 76.8581C1043.12 76.8581 1043.06 76.8581 1042.98 76.8581V76.8477ZM1036.46 66.335L1042.62 72.4969C1046.23 65.7938 1048.12 58.2683 1048.12 50.6075C1048.12 42.9468 1046.23 35.4214 1042.62 28.7182L1036.46 34.8801C1038.72 39.8346 1039.86 45.1222 1039.86 50.6075C1039.86 56.0929 1038.72 61.3805 1036.46 66.335Z" fill="#9DADF2"/>
<path d="M960.773 76.8478C960.7 76.8478 960.638 76.8478 960.575 76.8374C960.065 76.7749 959.618 76.4835 959.357 76.0463C954.757 68.3751 952.332 59.5799 952.332 50.6076C952.332 41.6354 954.757 32.8401 959.357 25.1689C959.618 24.7317 960.065 24.4403 960.575 24.3778C961.085 24.3154 961.585 24.4923 961.949 24.8462L970.463 33.3605C970.963 33.8601 971.088 34.6304 970.776 35.2549C968.402 40.0533 967.195 45.2159 967.195 50.5972C967.195 55.9785 968.402 61.1411 970.776 65.9395C971.088 66.5744 970.963 67.3447 970.463 67.8339L961.949 76.3481C961.637 76.6604 961.221 76.8374 960.783 76.8374L960.773 76.8478ZM961.137 28.7183C957.525 35.4214 955.631 42.9469 955.631 50.6076C955.631 58.2684 957.525 65.7938 961.137 72.497L967.299 66.335C965.041 61.3805 963.896 56.093 963.896 50.6076C963.896 45.1223 965.041 39.8347 967.299 34.8802L961.137 28.7183Z" fill="#9DADF2"/>
<path d="M1001.88 12.6162C980.936 12.6162 963.886 29.6551 963.886 50.6077C963.886 71.5603 980.925 88.5993 1001.88 88.5993C1022.83 88.5993 1039.87 71.5603 1039.87 50.6077C1039.87 29.6551 1022.83 12.6162 1001.88 12.6162ZM1023.26 38.1278C1025.06 41.2087 1026.15 44.5707 1026.5 48.1409C1026.52 48.2866 1026.45 48.4219 1026.33 48.4948C1023.61 50.1602 1021.18 52.2003 1019.07 54.5838C1018.98 54.6983 1018.82 54.7399 1018.69 54.6879L1013.99 53.1579C1013.86 53.1162 1013.76 53.0018 1013.74 52.856C1013.21 48.9736 1012.01 45.2577 1010.15 41.802C1010.09 41.6771 1010.1 41.5314 1010.18 41.4169L1013.09 37.42C1013.16 37.3263 1013.28 37.2639 1013.39 37.2639C1013.42 37.2639 1013.44 37.2639 1013.47 37.2639C1016.57 37.9508 1019.76 38.1798 1022.92 37.9196C1023.07 37.9092 1023.21 37.982 1023.28 38.1069L1023.26 38.1278ZM1011.18 53.5117C1011.19 53.6158 1011.16 53.7199 1011.1 53.7928C1008.63 56.6343 1005.49 58.9138 1002.02 60.371C1001.93 60.4127 1001.84 60.4127 1001.74 60.371C998.277 58.9034 995.133 56.6239 992.666 53.7928C992.604 53.7199 992.573 53.6158 992.583 53.5117C993.062 49.7438 994.238 46.1424 996.06 42.8117C996.112 42.718 996.195 42.6556 996.299 42.6347C998.131 42.2496 1000 42.0519 1001.89 42.0519C1003.77 42.0519 1005.65 42.2496 1007.48 42.6347C1007.58 42.6556 1007.67 42.718 1007.72 42.8117C1009.54 46.1424 1010.7 49.7438 1011.19 53.5117H1011.18ZM1010.62 27.6775C1010.62 27.6775 1010.75 27.5734 1010.87 27.5734C1010.91 27.5734 1010.96 27.5734 1011.02 27.6047C1014.85 29.1243 1018.27 31.6224 1020.94 34.8178C1021.07 34.974 1021.02 35.1405 1020.99 35.203C1020.97 35.255 1020.87 35.4216 1020.66 35.4216C1018.29 35.4528 1015.94 35.1822 1013.66 34.6409C1013.57 34.6201 1013.48 34.5576 1013.43 34.4743C1012.21 32.4655 1011.24 30.3005 1010.53 28.0522C1010.47 27.8545 1010.58 27.7192 1010.63 27.6775H1010.62ZM996.622 26.4285C1000.07 25.6895 1003.7 25.6895 1007.14 26.4285C1007.28 26.4597 1007.39 26.5638 1007.43 26.6991C1008.16 29.7905 1009.36 32.7465 1010.98 35.484C1011.05 35.6089 1011.04 35.765 1010.95 35.8899L1008.07 39.866C1007.99 39.9805 1007.84 40.043 1007.71 40.0117C1003.9 39.2415 999.869 39.2415 996.06 40.0117C995.924 40.043 995.778 39.9805 995.695 39.866L992.812 35.8899C992.729 35.7754 992.718 35.6089 992.791 35.484C994.405 32.7465 995.602 29.7905 996.341 26.6991C996.372 26.5638 996.486 26.4597 996.622 26.4285ZM982.83 34.8178C985.495 31.612 988.919 29.1139 992.75 27.6047C992.802 27.5839 992.854 27.5734 992.895 27.5734C993.031 27.5734 993.114 27.6463 993.145 27.6775C993.197 27.7296 993.312 27.8545 993.249 28.0522C992.541 30.3109 991.563 32.4655 990.345 34.4743C990.293 34.5576 990.21 34.6201 990.116 34.6409C987.837 35.1822 985.484 35.4528 983.122 35.4216C982.903 35.4216 982.809 35.255 982.789 35.203C982.757 35.1405 982.705 34.974 982.841 34.8178H982.83ZM980.509 38.1278C980.572 38.0133 980.696 37.9404 980.832 37.9404C980.832 37.9404 980.852 37.9404 980.863 37.9404C984.038 38.1902 987.223 37.9717 990.314 37.2847C990.46 37.2535 990.605 37.3055 990.689 37.4304L993.593 41.4273C993.676 41.5418 993.686 41.6979 993.624 41.8124C991.771 45.2681 990.564 48.984 990.033 52.8664C990.012 53.0017 989.918 53.1162 989.783 53.1683L985.089 54.6983C984.953 54.7399 984.797 54.6983 984.704 54.5943C982.601 52.2107 980.166 50.1705 977.449 48.5052C977.334 48.4323 977.262 48.297 977.272 48.1513C977.626 44.5811 978.719 41.2088 980.519 38.1382L980.509 38.1278ZM981.644 63.7747C981.581 63.9724 981.404 64.0141 981.331 64.0245C981.258 64.0245 981.092 64.0244 980.977 63.8579C978.76 60.371 977.449 56.3325 977.189 52.1899C977.178 51.9817 977.314 51.8776 977.376 51.8464C977.438 51.8151 977.605 51.7423 977.772 51.8672C979.697 53.2307 981.446 54.8337 982.976 56.6135C983.038 56.6864 983.07 56.7801 983.059 56.8842C982.872 59.2261 982.393 61.5472 981.633 63.7851L981.644 63.7747ZM991.927 73.2778C988.68 71.8518 985.817 69.7596 983.423 67.0742C983.33 66.9701 983.299 66.814 983.351 66.6891C984.568 63.7538 985.339 60.6625 985.64 57.4982C985.651 57.3525 985.755 57.2276 985.89 57.186L990.533 55.6767C990.533 55.6767 990.605 55.6559 990.647 55.6559C990.751 55.6559 990.845 55.6976 990.918 55.7809C993.52 58.6953 996.778 61.0684 1000.35 62.6401C1000.48 62.7026 1000.57 62.8275 1000.57 62.9732V67.8548C1000.57 68.0006 1000.48 68.1359 1000.35 68.1879C997.433 69.4474 994.727 71.144 992.302 73.2153C992.198 73.309 992.042 73.3298 991.917 73.2673L991.927 73.2778ZM1008.3 74.3082C1008.29 74.3811 1008.24 74.5476 1008.03 74.5996C1004.01 75.6197 999.765 75.6197 995.747 74.5996C995.549 74.5476 995.487 74.3811 995.477 74.3082C995.466 74.2354 995.445 74.0688 995.622 73.9335C997.517 72.5284 999.578 71.3521 1001.75 70.4466C1001.85 70.4049 1001.94 70.4049 1002.03 70.4466C1004.2 71.3521 1006.26 72.5284 1008.16 73.9335C1008.33 74.0584 1008.32 74.2354 1008.31 74.3082H1008.3ZM1020.36 67.0846C1017.97 69.77 1015.11 71.8518 1011.86 73.2778C1011.72 73.3402 1011.58 73.3089 1011.47 73.2257C1009.05 71.1544 1006.35 69.4578 1003.43 68.1983C1003.29 68.1359 1003.21 68.011 1003.21 67.8653V62.9836C1003.21 62.8379 1003.29 62.7026 1003.43 62.6505C1007 61.0788 1010.27 58.7056 1012.86 55.7912C1012.93 55.7079 1013.03 55.6663 1013.13 55.6663C1013.17 55.6663 1013.2 55.6663 1013.24 55.6871L1017.89 57.1964C1018.02 57.238 1018.13 57.3629 1018.14 57.5087C1018.44 60.6729 1019.21 63.7539 1020.43 66.6995C1020.48 66.8244 1020.46 66.9805 1020.35 67.0846H1020.36ZM1022.8 63.8683C1022.68 64.0453 1022.51 64.0453 1022.45 64.0349C1022.37 64.0349 1022.21 63.9829 1022.13 63.7851C1021.38 61.5472 1020.9 59.2261 1020.71 56.8842C1020.71 56.7905 1020.73 56.6864 1020.79 56.6135C1022.32 54.8337 1024.07 53.2411 1025.99 51.8672C1026.07 51.8152 1026.14 51.7943 1026.2 51.7943C1026.29 51.7943 1026.35 51.8255 1026.39 51.8464C1026.45 51.8776 1026.6 51.9817 1026.58 52.1899C1026.32 56.3325 1025.01 60.371 1022.79 63.8579L1022.8 63.8683Z" fill="#9DADF2"/>
</g>
<g clip-path="url(#clip4_1_71)">
<path d="M876.732 99.3895C849.41 99.3895 827.187 77.1567 827.187 49.8444C827.187 22.5321 849.42 0.299316 876.732 0.299316C904.045 0.299316 926.278 22.5321 926.278 49.8444C926.278 77.1567 904.045 99.3895 876.732 99.3895ZM876.732 3.59884C851.231 3.59884 830.487 24.3432 830.487 49.8444C830.487 75.3456 851.231 96.09 876.732 96.09C902.234 96.09 922.978 75.3456 922.978 49.8444C922.978 24.3432 902.234 3.59884 876.732 3.59884Z" fill="#7DDACF"/>
<path d="M909.065 14.4911L893.726 29.8293L896.744 32.847L912.082 17.5087L909.065 14.4911Z" fill="#7DDACF"/>
<path d="M856.264 67.2899L840.925 82.6282L843.943 85.6458L859.281 70.3075L856.264 67.2899Z" fill="#7DDACF"/>
<path d="M897.193 67.2976L894.176 70.3152L909.514 85.6534L912.531 82.6358L897.193 67.2976Z" fill="#7DDACF"/>
<path d="M843.939 14.0366L840.922 17.0542L856.253 32.3851L859.27 29.3675L843.939 14.0366Z" fill="#7DDACF"/>
<path d="M888.817 51.1768C889.816 50.1776 889.816 48.5642 888.817 47.5754L886.693 45.4625C885.694 44.4632 884.081 44.4632 883.092 45.4625L881.947 46.6074L880.625 45.2855C879.626 44.2863 878.012 44.2863 877.024 45.2855L875.879 46.4409L874.557 45.1086C873.558 44.1093 871.944 44.1093 870.955 45.1086L863.93 52.1344C863.878 52.1864 863.878 52.2697 863.93 52.3321C864.866 53.2689 866.396 53.2689 867.344 52.3321L871.871 47.8044C872.361 47.3152 873.152 47.3152 873.641 47.8044L873.974 48.1375C874.036 48.2 874.036 48.2936 873.974 48.356L870.196 52.1344C870.144 52.1864 870.144 52.2697 870.196 52.3321C871.132 53.2689 872.662 53.2689 873.61 52.3321L877.95 47.9918C878.439 47.5026 879.23 47.5026 879.72 47.9918L880.053 48.3248C880.105 48.3769 880.105 48.4602 880.053 48.5226L876.41 52.1656C876.357 52.2177 876.357 52.301 876.41 52.3634C877.346 53.3002 878.876 53.3002 879.824 52.3634L884.018 48.1687C884.507 47.6795 885.299 47.6795 885.788 48.1687L886.506 48.8869C886.787 49.1679 886.787 49.6363 886.506 49.9173L886.391 50.0318C886.11 50.3128 885.642 50.3128 885.361 50.0318L884.435 49.1055C884.383 49.0535 884.299 49.0535 884.237 49.1055L882.634 50.7084C882.582 50.7604 882.582 50.8437 882.634 50.9062L884.081 52.353C885.08 53.3522 886.693 53.3522 887.682 52.353L888.827 51.208L888.817 51.1768Z" fill="#7DDACF"/>
<path d="M876.734 11.853C855.75 11.853 838.742 28.8607 838.742 49.8445C838.742 70.8284 855.75 87.8361 876.734 87.8361C897.717 87.8361 914.725 70.8284 914.725 49.8445C914.725 28.8607 897.717 11.853 876.734 11.853ZM878.284 23.5836C884.384 23.9375 889.921 26.3731 894.21 30.1827L888.724 35.668C885.862 33.2428 882.25 31.6711 878.284 31.338V23.5836ZM875.193 23.5836V31.338C871.227 31.6607 867.616 33.2428 864.753 35.668L859.268 30.1827C863.556 26.3731 869.094 23.9375 875.193 23.5836ZM857.082 32.3685L862.567 37.8538C860.142 40.7162 858.571 44.328 858.237 48.2937H850.483C850.837 42.1942 853.273 36.6568 857.082 32.3685ZM850.483 51.3851H858.237C858.56 55.3508 860.142 58.9625 862.567 61.8249L857.082 67.3103C853.273 63.0219 850.837 57.4845 850.483 51.3851ZM875.193 76.0952C869.094 75.7413 863.556 73.3056 859.268 69.4961L864.753 64.0107C867.616 66.436 871.227 68.0076 875.193 68.3407V76.0952ZM860.767 49.8341C860.767 41.018 867.917 33.8673 876.734 33.8673C885.55 33.8673 892.7 41.018 892.7 49.8341C892.7 58.6502 885.55 65.801 876.734 65.801C867.917 65.801 860.767 58.6502 860.767 49.8341ZM878.284 76.0952V68.3407C882.25 68.018 885.862 66.436 888.724 64.0107L894.21 69.4961C889.921 73.3056 884.384 75.7413 878.284 76.0952ZM896.395 67.3103L890.91 61.8249C893.335 58.9625 894.907 55.3508 895.24 51.3851H902.995C902.641 57.4845 900.205 63.0219 896.395 67.3103ZM895.24 48.2937C894.917 44.328 893.335 40.7162 890.91 37.8538L896.395 32.3685C900.205 36.6568 902.641 42.1942 902.995 48.2937H895.24Z" fill="#7DDACF"/>
</g>
<g clip-path="url(#clip5_1_71)">
<path d="M505.732 100C493.034 100 480.346 95.1705 470.676 85.5009C451.347 66.1721 451.347 34.7276 470.676 15.3987C480.044 6.03095 492.493 0.878662 505.732 0.878662C518.972 0.878662 531.421 6.03095 540.789 15.3987C560.118 34.7276 560.118 66.1721 540.789 85.5009C531.13 95.1601 518.431 100 505.732 100ZM473.278 82.8988C491.171 100.791 520.284 100.791 538.176 82.8988C556.069 65.0063 556.069 35.8933 538.176 18.0009C529.506 9.33049 517.983 4.56336 505.722 4.56336C493.461 4.56336 481.938 9.3409 473.268 18.0009C455.375 35.8933 455.375 65.0063 473.268 82.8988H473.278Z" fill="#9DADF2"/>
<path d="M505.077 68.9929C505.254 69.4196 505.67 69.6693 506.107 69.6693C506.253 69.6693 506.399 69.6382 506.545 69.5861C510.042 68.1185 513.227 65.8493 515.746 63.0182C516.152 62.5602 516.11 61.8525 515.652 61.4466C515.194 61.0407 514.486 61.0823 514.08 61.5403C511.78 64.132 508.876 66.2033 505.681 67.5356C505.119 67.775 504.848 68.4308 505.087 68.9929H505.077Z" fill="#9DADF2"/>
<path d="M524.622 33.312L506.137 25.9218C505.866 25.8177 505.575 25.8177 505.304 25.9218L486.818 33.312C486.392 33.4785 486.121 33.8844 486.121 34.3424V47.5822C486.142 59.8019 493.865 70.8455 505.335 75.0506C505.46 75.0922 505.585 75.1131 505.72 75.1131C505.856 75.1131 505.981 75.0922 506.106 75.0506C517.576 70.8351 525.299 59.8019 525.32 47.5822V34.3424C525.32 33.8844 525.049 33.4785 524.622 33.312ZM523.092 47.5822C523.072 58.6986 516.098 68.8262 505.731 72.8127C495.364 68.8262 488.38 58.6986 488.359 47.5822V35.1022L505.731 28.1597L523.092 35.1022V47.5822Z" fill="#9DADF2"/>
<path d="M498.008 35.0502C497.738 34.9357 497.436 34.9357 497.155 35.0502L492.752 36.8094C492.325 36.9759 492.055 37.3818 492.055 37.8398V42.5341C492.055 43.1482 492.554 43.6478 493.168 43.6478C493.782 43.6478 494.282 43.1482 494.282 42.5341V38.5996L497.977 37.1217C498.258 37.0072 498.466 36.7989 498.591 36.5179C498.706 36.2473 498.706 35.9455 498.591 35.6644C498.477 35.3834 498.268 35.1751 497.998 35.0502H498.008Z" fill="#9DADF2"/>
<path d="M533.888 22.2998C526.373 14.7743 516.37 10.6421 505.732 10.6421C495.095 10.6421 485.102 14.7847 477.577 22.2998C462.058 37.819 462.058 63.0808 477.577 78.6105C485.342 86.3754 495.532 90.2473 505.732 90.2473C515.933 90.2473 526.123 86.365 533.888 78.6105C549.407 63.0913 549.407 37.8295 533.888 22.2998ZM528.381 47.5823C528.413 61.7068 519.388 74.0619 505.93 78.3399C505.805 78.3815 505.67 78.3815 505.534 78.3399C492.076 74.0619 483.052 61.7068 483.083 47.5823V31.959C483.083 31.6987 483.239 31.4594 483.489 31.3553L505.493 22.56C505.566 22.5288 505.649 22.5184 505.732 22.5184C505.815 22.5184 505.899 22.5288 505.972 22.56L527.976 31.3657C528.225 31.4594 528.381 31.6987 528.381 31.9694V47.5927V47.5823Z" fill="#9DADF2"/>
</g>
<g clip-path="url(#clip6_1_71)">
<path d="M631.15 0.886455C632.138 0.886455 632.929 1.68795 632.929 2.66635C632.929 3.64476 632.128 4.44625 631.15 4.44625C605.794 4.44625 585.164 25.0762 585.164 50.4316C585.164 75.787 605.794 96.4169 631.15 96.4169C632.138 96.4169 632.929 97.2184 632.929 98.1968C632.929 99.1752 632.128 99.9767 631.15 99.9767C603.827 99.9767 581.594 77.7439 581.594 50.4212C581.594 23.0985 603.827 0.865657 631.15 0.865657V0.886455Z" fill="#478BF9"/>
<path opacity="0.9" d="M742.751 41.6803C742.751 43.5013 743.99 45.0833 745.759 45.5203L749.121 46.3633V37.7143H746.727C744.541 37.7143 742.762 39.4943 742.762 41.6803H742.751Z" fill="#478BF9"/>
<path d="M755.468 63.1533H757.863C760.048 63.1533 761.828 61.3733 761.828 59.1873C761.828 57.3653 760.59 55.7833 758.82 55.3463L755.458 54.5033V63.1533H755.468Z" fill="#478BF9"/>
<path d="M752.295 10.1102C730.063 10.1102 711.962 28.2002 711.962 50.4442C711.962 72.6872 730.052 90.7772 752.295 90.7772C774.539 90.7772 792.629 72.6872 792.629 50.4442C792.629 28.2002 774.539 10.1102 752.295 10.1102ZM768.2 44.0742H761.84V40.8882C761.84 39.1402 760.414 37.7032 758.655 37.7032H755.47V47.9462L760.373 49.1742C764.973 50.3292 768.189 54.4412 768.189 59.1872C768.189 64.8802 763.558 69.5122 757.864 69.5122H755.47V77.5692H749.11V69.5122H745.925C740.659 69.5122 736.381 65.2342 736.381 59.9682V56.7832H742.74V59.9682C742.74 61.7162 744.166 63.1532 745.925 63.1532H749.11V52.9102L744.208 51.6822C739.607 50.5272 736.391 46.4152 736.391 41.6692C736.391 35.9762 741.023 31.3442 746.716 31.3442H749.11V23.2882H755.47V31.3442H758.655C763.922 31.3442 768.2 35.6222 768.2 40.8882V44.0742Z" fill="#478BF9"/>
<path d="M752.285 0.88913C779.608 0.88913 801.841 23.122 801.841 50.4446C801.841 77.7673 779.608 100 752.285 100C724.963 100 702.73 77.7673 702.73 50.4446C702.73 23.122 724.963 0.88913 752.285 0.88913ZM752.285 96.43C777.641 96.43 798.271 75.8001 798.271 50.4446C798.271 25.0892 777.641 4.45933 752.285 4.45933C726.93 4.45933 706.3 25.0892 706.3 50.4446C706.3 75.8001 726.93 96.43 752.285 96.43Z" fill="#478BF9"/>
<path d="M630.39 0.82708L749.985 0.82708C750.974 0.82708 751.765 1.62848 751.765 2.60688C751.765 3.58538 750.963 4.38678 749.985 4.38678L630.39 4.38678C629.401 4.38678 628.61 3.58538 628.61 2.60688C628.61 1.62848 629.411 0.82708 630.39 0.82708Z" fill="#478BF9"/>
<path d="M630.129 96.362L749.725 96.362C750.714 96.362 751.505 97.1635 751.505 98.1419C751.505 99.1203 750.703 99.9217 749.725 99.9217L630.129 99.9217C629.141 99.9217 628.35 99.1203 628.35 98.1419C628.35 97.1635 629.151 96.362 630.129 96.362Z" fill="#478BF9"/>
</g>
<defs>
<clipPath id="clip0_1_71">
<rect width="100" height="60" fill="white" transform="matrix(0 -1 1 0 0 100)"/>
</clipPath>
<clipPath id="clip1_1_71">
<rect width="100" height="221" fill="white" transform="matrix(0 -1 1 0 85 100)"/>
</clipPath>
<clipPath id="clip2_1_71">
<rect width="100" height="100" fill="white" transform="translate(331)"/>
</clipPath>
<clipPath id="clip3_1_71">
<rect width="100" height="100" fill="white" transform="translate(952 1)"/>
</clipPath>
<clipPath id="clip4_1_71">
<rect width="100" height="100" fill="white" transform="translate(827)"/>
</clipPath>
<clipPath id="clip5_1_71">
<rect width="100" height="100" fill="white" transform="translate(456)"/>
</clipPath>
<clipPath id="clip6_1_71">
<rect width="100" height="221" fill="white" transform="matrix(0 -1 1 0 581 100)"/>
</clipPath>
</defs>
</svg>
